# xmcd
#
# Track frame offsets:
#	150
#	14762
#	32082
#	49332
#	68089
#	86237
#	107817
#	118774
#	135624
#	153960
#	170155
#	183523
#	198051
#	214601
#	233291
#	247161
#	263231
#	278889
#	294865
#	312488
#
# Disc length: 4382 seconds
#
# Revision: 1
# Processed by: cddbd v1.5.2PL0 Copyright (c) Steve Scherf et al.
# Submitted via: audiograbber 1.83.01
#
DISCID=27111c14
DTITLE=Variado - O Melhor do Bailão
DYEAR=1900
DGENRE=Gaúcho
TTITLE0=Os Nativos - Capricha gaiteiro
TTITLE1=Os Serranos - Cambichos
TTITLE2=Domingueiro - Domingueiro
TTITLE3=Castelhana - Castelhana
TTITLE4=Os Nativos - Canta catarina
TTITLE5=Os Serranos - Criado em galpão
TTITLE6=Os Mateadores - Polvadeira
TTITLE7=Os Nativos - Santo chão
TTITLE8=Os Garotos de Ouro - Surungo do namoro
TTITLE9=Os Nativos - Bugio da capela
TTITLE10=Os Serranos - Bugio novo
TTITLE11=Garotos de Ouro - De chão batido
TTITLE12=Porca Véia - Recorrendo os aguapés
TTITLE13=Grupo Minuano - Vamo rapaziada
TTITLE14=Grupo Renascença - Memórias de galpão
TTITLE15=Os Farrapos - Minha gordinha
TTITLE16=Grupo Quero-Quero - Os bonitão
TTITLE17=Tchê Garotos - Saracoteando
TTITLE18=Os Tiranos - Fandangueiro de galpão
TTITLE19=Garotos de Ouro - Yahoo!
EXTD=
EXTT0=
EXTT1=
EXTT2=
EXTT3=
EXTT4=
EXTT5=
EXTT6=
EXTT7=
EXTT8=
EXTT9=
EXTT10=
EXTT11=
EXTT12=
EXTT13=
EXTT14=
EXTT15=
EXTT16=
EXTT17=
EXTT18=
EXTT19=
PLAYORDER=
